# xmcd
#
# Track frame offsets: 
#        150
#        15381
#        27911
#        44002
#        62391
#        74615
#        90733
#        101988
#        118178
#        135548
#        158610
#
# Disc length: 2306 seconds
#
# Revision: 0
# Processed by: cddbd v1.5.2PL0 Copyright (c) Steve Scherf et al.
# Submitted via: ExactAudioCopyFreeDBPlugin 1.0
#
DISCID=9209000b
DTITLE=Rachel Laven - Unwind
DYEAR=2012
DGENRE=Country
TTITLE0=Second Chances
TTITLE1=Just A Friend
TTITLE2=Ugly Situations
TTITLE3=Storm
TTITLE4=To Say I Love You
TTITLE5=A Soldier's Heart
TTITLE6=This Is My Art
TTITLE7=On Your Own
TTITLE8=In The End
TTITLE9=Wall To Breach
TTITLE10=Unwind
EXTD=
EXTT0=
EXTT1=
EXTT2=
EXTT3=
EXTT4=
EXTT5=
EXTT6=
EXTT7=
EXTT8=
EXTT9=
EXTT10=
PLAYORDER=
